<svg xmlns="http://www.w3.org/2000/svg" viewBox="0 0 1401.94 1175.67"><title>Ativo 1</title><path d="M1075.18,270.08C1075.18,121.29,890.31,0,662.26,0S249.33,121.29,249.33,270.08c0,3.85,0,14.47,0,15.82,0,157.86,161.59,285.69,412.91,285.69,252.86,0,413-127.81,413-285.67Z" style="fill:#2d3277"/><path d="M1059.37,270c0,140.27-177.76,254-397.06,254s-397-113.71-397-254,177.76-254,397-254,397.06,113.74,397.06,254" style="fill:#f7d032"/><path d="M530.48,189.81c-.19.41-4.16,4.49-1.61,7.79,6.29,8,25.64,12.6,45.21,8.21,11.64-2.61,26.6-14.49,41-26,15.68-12.47,31.25-24.93,46.87-29.9,16.57-5.28,27.17-3,34.18-.88,7.69,2.29,16.74,7.34,31.15,18.17C754.51,187.65,863.75,283,882.62,299.5c15.19-6.87,82.75-36,174.58-56.2-8-49-37.75-93.73-82.92-130.38-62.93,26.42-139.84,40.22-215,3.47-.39-.13-41.08-19.41-81.24-18.47-59.68,1.4-85.51,27.23-112.87,54.55Z" style="fill:#fff"/><path d="M878.18,309.86c-1.28-1.14-128.44-112.42-157.25-134.07-16.67-12.5-25.95-15.68-35.69-16.92-5.06-.67-12.07.27-17,1.61-13.41,3.65-30.94,15.37-46.48,27.7-16.12,12.83-31.31,24.92-45.41,28.07-18,4-40-.73-50-7.5-4.06-2.73-6.93-5.91-8.3-9.11-3.69-8.6,3.12-15.47,4.26-16.61l35.07-38c4.09-4.08,8.19-8.15,12.41-12.15-11.33,1.47-21.79,4.36-32,7.2-12.72,3.57-25,7-37.31,7-5.19,0-32.84-4.53-38.1-6-31.76-8.69-59.64-17.15-101.25-36.59-49.9,37.12-83.27,83.57-92.91,134.72,7.17,1.9,18.73,5.34,23.58,6.4,112.89,25.11,148.06,51,154.44,56.38a37.34,37.34,0,0,1,58.58,3.43A42.55,42.55,0,0,1,531.78,296a50,50,0,0,1,16.13,2.83,37.1,37.1,0,0,1,22.73,20.53A37.35,37.35,0,0,1,586.35,316a47.48,47.48,0,0,1,18.76,4.14c20.83,8.93,24.07,29.37,22.18,44.8a37.13,37.13,0,0,1,4.5-.26,44.74,44.74,0,0,1,39.4,65.92C677.88,434.39,695,442.93,710,441c12-1.53,16.57-5.63,18.22-7.93,1.1-1.61,2.29-3.43,1.2-4.79l-31.86-35.39s-5.24-4.95-3.52-6.87,5,.86,7.32,2.77c16.22,13.54,36,34,36,34,.34.23,1.65,2.8,9,4.12,6.28,1.14,17.43.47,25.16-5.87a40.23,40.23,0,0,0,5.54-5.67,2.39,2.39,0,0,1-.36.29c8.13-10.42-.92-21-.92-21l-37.18-41.78s-5.32-4.9-3.51-6.89c1.61-1.7,5,.89,7.36,2.81,11.8,9.86,28.42,26.54,44.36,42.17,3.12,2.27,17.14,11,35.69-1.24,11.27-7.38,13.52-16.47,13.21-23.32-.79-9.05-7.85-15.51-7.85-15.51l-50.8-51.07s-5.38-4.58-3.48-6.89c1.55-1.95,5,.86,7.3,2.76,16.22,13.55,60,53.71,60,53.71.61.43,15.74,11.21,34.47-.71,6.67-4.26,11-10.69,11.33-18.19a27,27,0,0,0-8.54-20.71" style="fill:#fff"/><path d="M631.77,374.6c-7.87-.1-16.49,4.59-17.6,3.91-.65-.41.47-3.57,1.21-5.4s11.13-33-14.17-43.87c-19.33-8.31-31.17,1-35.25,5.28-1,1.1-1.54,1-1.65-.41-.4-5.62-2.89-20.83-19.61-25.91-23.85-7.31-39.22,9.34-43.09,15.35A27.64,27.64,0,1,0,493.39,347c.15.16.21.41.15.94-1.17,6.85-3.31,31.74,22.75,41.89,10.45,4.05,19.36,1,26.72-4.14,2.2-1.55,2.55-.9,2.24,1.18-1,6.4.25,20.1,19.47,27.91,14.64,5.95,23.3-.14,28.95-5.4,2.48-2.23,3.14-1.88,3.28,1.61a34.85,34.85,0,1,0,34.82-36.43" style="fill:#fff"/><path d="M631.77,441.81a32.13,32.13,0,0,1-32.29-30.88c0-1.47-.19-5.42-3.53-5.42-1.37,0-2.55.83-3.93,2.06-3.84,3.58-8.73,7.19-15.86,7.19a27.87,27.87,0,0,1-10.46-2.28c-18.43-7.46-18.67-20.12-17.92-25.2a4.66,4.66,0,0,0-.69-3.89l-1.12-1h-1.15a5.5,5.5,0,0,0-3.2,1.3c-5.34,3.75-10.45,5.57-15.65,5.57a24.05,24.05,0,0,1-8.73-1.73c-24.27-9.44-22.36-32.35-21.18-39.24a3.35,3.35,0,0,0-1-3.2l-1.73-1.41-1.59,1.55a25.23,25.23,0,1,1,7.46-21.34l.88,6.76,3.71-5.73c.41-.67,10.6-16.06,29.33-16A37.22,37.22,0,0,1,544,310.59c14.92,4.55,17.45,18.09,17.84,23.73.28,3.28,2.61,3.43,3.07,3.43a4.21,4.21,0,0,0,2.92-1.51,25.37,25.37,0,0,1,18.53-7.83,35.29,35.29,0,0,1,13.9,3.14c23.73,10.17,13,40.32,12.84,40.63-2.05,5-2.12,7.19-.2,8.46l.92.45h.71a17.57,17.57,0,0,0,4.59-1.19c3.22-1.12,8.11-2.81,12.64-2.79h0a32.35,32.35,0,1,1,0,64.7M883.11,296.53C843.93,262.36,753.4,183.64,728.88,165.25c-14-10.54-23.56-16.12-32-18.61a52.64,52.64,0,0,0-15.68-2.43,66.48,66.48,0,0,0-19.94,3.33c-15.84,5-31.63,17.57-46.9,29.7l-.78.63c-14.22,11.31-28.92,23-40,25.5A68.59,68.59,0,0,1,558.73,205c-12.44,0-23.65-3.61-27.85-9-.69-.88-.24-2.32,1.39-4.38l.2-.27,34.47-37.14c27-27,52.49-52.47,111.16-53.83,1,0,2,0,2.92,0,36.53,0,73.06,16.38,77.15,18.28,34.25,16.7,69.6,25.18,105.13,25.22,37,0,75.26-9.16,115.44-27.65q-6.74-5.65-14-11.06c-35.28,15.3-68.92,23-101.37,23-33.13,0-66.23-8-98.38-23.65-1.69-.83-42-19.83-84-19.85-1.1,0-2.21,0-3.29,0-49.29,1.16-77.07,18.65-95.74,34-18.15.43-33.82,4.83-47.78,8.69-12.42,3.48-23.16,6.48-33.66,6.46-4.3,0-12.07-.39-12.76-.41-12.05-.37-72.76-15.25-121-33.55-4.93,3.5-9.68,7.11-14.29,10.78,50.44,20.69,111.83,36.67,131.2,37.92,5.38.36,11.13,1,16.86,1,12.82,0,25.62-3.6,38-7.07,7.33-2.06,15.39-4.28,23.89-5.91-2.27,2.22-4.53,4.48-6.81,6.73l-35,37.91c-2.75,2.77-8.73,10.19-4.79,19.33,1.57,3.69,4.75,7.23,9.21,10.21,8.36,5.63,23.3,9.42,37.18,9.42A66.07,66.07,0,0,0,577,218.68c14.68-3.28,30.07-15.55,46.36-28.5,13-10.33,31.47-23.44,45.6-27.29a51.9,51.9,0,0,1,12.7-1.74c1.18,0,2.28.06,3.28.17,9.36,1.2,18.37,4.38,34.49,16.47,28.76,21.6,155.91,132.85,157.17,134a24.37,24.37,0,0,1,7.64,18.69c-.3,6.5-3.91,12.25-10.17,16.25a30.94,30.94,0,0,1-16.69,5.19,27.62,27.62,0,0,1-14.74-4.26c-.47-.38-44-40.34-60.06-53.77-2.56-2.12-5.05-4-7.54-4a4.2,4.2,0,0,0-3.34,1.57c-2.53,3.12.3,7.42,3.63,10.25l50.9,51.15c.08.08,6.34,5.95,7,13.8.41,8.48-3.65,15.56-12.09,21.1-6,4-12.07,6-18,6a26.37,26.37,0,0,1-14.51-4.4l-7.3-7.2c-13.35-13.14-27.13-26.7-37.2-35.12-2.47-2-5.1-3.95-7.59-3.95a4.43,4.43,0,0,0-3.22,1.36c-1.14,1.29-2,3.59.92,7.4a24.57,24.57,0,0,0,2.57,2.86L774,396.35c.31.37,7.65,9.07.84,17.78l-1.31,1.67a35.62,35.62,0,0,1-3.46,3.32c-6.34,5.2-14.78,5.75-18.15,5.75a28.7,28.7,0,0,1-5-.41c-3.67-.65-6.12-1.69-7.32-3.11l-.45-.45c-2-2.1-20.75-21.22-36.24-34.15-2-1.71-4.59-3.85-7.24-3.85a4.37,4.37,0,0,0-3.34,1.49c-3.06,3.36,1.53,8.38,3.5,10.21l31.68,34.94a7.55,7.55,0,0,1-1.22,2.12c-1.14,1.59-5,5.44-16.47,6.87a32.44,32.44,0,0,1-4.2.26c-11.86,0-24.5-5.76-31-9.21a46.8,46.8,0,0,0,4.51-20.08,47.32,47.32,0,0,0-47.25-47.31c-.55,0-1.14,0-1.69,0,.83-11.89-.84-34.45-24-44.36a49.54,49.54,0,0,0-19.75-4.36,40,40,0,0,0-14.49,2.63,39.72,39.72,0,0,0-23.14-19.65,52,52,0,0,0-16.94-3A44.78,44.78,0,0,0,505.4,302a39.81,39.81,0,0,0-59.3-3.32c-9.86-7.54-49-32.39-153.68-56.16-5.06-1.16-16.7-4.47-23.83-6.57a168.32,168.32,0,0,0-2.67,17.17s19.3,4.63,23.1,5.5c107,23.75,142.3,48.44,148.27,53.12a40.09,40.09,0,0,0,44.32,54.82c3.34,16.25,14,28.58,30.23,34.9a39.72,39.72,0,0,0,14.29,2.77,36,36,0,0,0,9.13-1.14c3,7.64,9.75,17.14,24.87,23.26a41.92,41.92,0,0,0,15.72,3.26,35.45,35.45,0,0,0,12.23-2.18,47.2,47.2,0,0,0,77.55,15c7.62,4.24,23.74,11.91,40,11.93a49.17,49.17,0,0,0,6-.39c16.18-2,23.7-8.36,27.15-13.27a19.93,19.93,0,0,0,1.67-2.73,45.35,45.35,0,0,0,12.82,2c8.83,0,17.29-3,25.85-9.24,8.4-6.05,14.39-14.76,15.25-22.16a2,2,0,0,0,0-.34,42.71,42.71,0,0,0,8.66.89c9.07,0,18-2.83,26.56-8.42,16.47-10.8,19.33-24.91,19.06-34.16a42.4,42.4,0,0,0,8.77.92,46,46,0,0,0,24.89-7.65c10.21-6.52,16.35-16.53,17.28-28.15a38,38,0,0,0-5.48-22.73c27.6-11.9,90.69-34.92,165-51.67a167,167,0,0,0-2.31-17.11c-89.87,20-157,49-173.74,56.45" style="fill:#2d3277"/><path d="M1338.11,827.53Q1326.41,843,1304.64,843t-33.57-15.49q-11.76-15.49-11.75-44.07t11.75-44q11.76-15.4,33.57-15.4t33.47,15.4q11.67,15.43,11.69,44t-11.69,44.07m39.74-115.32q-24-30.13-73.08-30.13t-73,30.13q-24.09,30.13-24.09,71.25,0,41.84,24.09,71.56t73,29.69q49.07,0,73.08-29.69t24.09-71.56q0-41.07-24.09-71.25" style="fill:#2d3277"/><path d="M942.57,804.05c-.34,16.7-5.14,28.17-14.29,34.47A52.11,52.11,0,0,1,898.19,848a27.42,27.42,0,0,1-17.51-5.7c-4.8-3.79-7.19-10-7.19-18.45,0-9.57,3.91-16.61,11.79-21.17,4.63-2.66,12.28-5,22.91-6.8l11.34-2.1a86.3,86.3,0,0,0,13.38-3.46,50.38,50.38,0,0,0,9.66-4.78Zm25.27-108.64Q943.44,683.05,912,683q-48.36,0-68.2,25.19-12.46,16.09-14.07,41.12h48.13c1.18-7.36,3.53-13.19,7.1-17.5q7.41-8.74,25.33-8.75c10.67,0,18.72,1.46,24.22,4.46s8.24,8.37,8.24,16.19c0,6.42-3.57,11.11-10.74,14.15q-6,2.64-19.92,4.38L895,764.35c-19.37,2.43-34.1,6.55-44,12.26q-27.32,15.75-27.34,50.9,0,27.09,17,41.88c11.28,9.86,25.65,14,43,14.81,108.83,4.86,107.61-57.35,108.62-70.3V742.31q0-34.44-24.42-46.9" style="fill:#2d3277"/><path d="M719.7,725.66q18.63,0,27.46,11.51a42.7,42.7,0,0,1,7.55,19.19h53.71Q804,715.75,780,699.67t-61.74-16q-44.37,0-69.56,27.19T623.45,787q0,43.34,22.84,70.55t71.19,27.22q48.39,0,73.08-32.63Q806,831.87,807.85,809.2h-53.5q-1.65,15-9.43,24.4T718.79,843q-26,0-35.39-23.73c-3.43-8.45-5.18-19.65-5.18-33.55,0-14.6,1.75-26.31,5.18-35.16q9.75-24.92,36.3-24.93" style="fill:#2d3277"/><path d="M609.07,683.62c-110.28,0-103.75,97.64-103.75,97.64v99.16h50v-93q0-22.85,5.72-33.85C568,740.55,581.37,734,601.4,734c1.5,0,3.48.08,5.91.19s5.22.33,8.39.69V684c-2.22-.14-3.65-.21-4.25-.27s-1.47-.11-2.38-.11" style="fill:#2d3277"/><path d="M358,735.45q10.56-10.85,29.67-10.86,17.58,0,29.49,10.24c7.91,6.83,12.32,16.87,13.23,30H344.74q2.7-18.57,13.25-29.41m67.26,93.16a36.64,36.64,0,0,1-6.85,7.58c-7.08,5.81-16.67,7.59-28,7.59-10.7,0-19.06-1.63-26.65-6.41-12.46-7.67-19.5-20.66-20.26-39.72H482c.17-16.42-.34-29-1.67-37.71a93.85,93.85,0,0,0-15.13-39.33,77.9,77.9,0,0,0-32.85-28.12q-19.91-8.88-44.69-8.89-41.84,0-68,26.34t-26.22,75.75q0,52.74,29,76.11t66.94,23.41q46,0,71.55-27.74c9.17-9.74,14.91-19.36,17.34-28.86Z" style="fill:#2d3277"/><path d="M273.37,880.42h-45.7V765.31c0-10.5-3.49-35.5-33.62-35.5-20.11,0-34.65,14.48-34.65,35.5V880.42H113.61V765.31c0-10.5-3.08-35.5-33.23-35.5-20.46,0-34.66,14.48-34.66,35.5V880.42H0v-114C0,718.89,31.52,683,80.38,683c24.25,0,44,10.18,56.85,26.49A72.82,72.82,0,0,1,194.05,683c49.89,0,79.32,34.46,79.32,83.44Z" style="fill:#2d3277"/><path d="M1132.76,827.94c-7.31,10.48-18,15.7-32.07,15.7s-24.58-5.26-31.49-15.79-10.37-25.88-10.37-43.42q0-24.4,10.18-40.88t32-16.5a38.12,38.12,0,0,1,25.13,9.06c11.72,10,17.6,27.95,17.6,51.2q0,24.9-11,40.63m60-204.43s-50.42-5.39-50.42,35.1l0,53.62a60.46,60.46,0,0,0-21.78-21c-8.94-5-19.17-7.59-30.7-7.59q-37.5,0-59.91,27.9c-14.93,18.63-22.37,45.44-22.37,77.86q0,42.21,22.73,69.17c15.2,17.94,45,25.82,71.36,25.82,92.14,0,91.06-79,91.06-79Z" style="fill:#2d3277"/><path d="M898.17,1027.21q10.46-10.74,29.41-10.75,17.4,0,29.2,10.14t13.14,29.75H885q2.7-18.39,13.15-29.14m66.66,92.36a35.68,35.68,0,0,1-6.8,7.5c-7,5.77-16.89,7.9-28.08,7.9-10.59,0-18.89-1.61-26.39-6.36q-18.62-11.38-19.72-39.74h137.24c.19-16.25-.34-28.72-1.67-37.38-2.28-14.77-7.29-27.79-15-39q-12.87-19-32.58-27.9t-44.27-8.81c-27.66,0-50.08,8.71-67.42,26.12s-25.95,42.45-25.95,75.07q0,52.26,28.78,75.46t66.36,23.2q45.52,0,70.85-27.49c9.11-9.66,14.81-19.21,17.24-28.61Z" style="fill:#2d3277"/><path d="M824.66,976c-.66,0-1.44-.09-2.35-.09-110.31,0-103.76,97.62-103.76,97.62v97.64H768.6V1079.7c0-15.23,1.9-26.54,5.75-33.85,6.82-13,20.28-19.54,40.27-19.54,1.54,0,3.49.06,5.92.21s5.24.31,8.39.67V976.27c-2.22-.12-3.64-.19-4.27-.25" style="fill:#2d3277"/><path d="M380.8,950.61v220.23h46.95V914.69s-46.95-1.9-46.95,35.92" style="fill:#2d3277"/><path d="M516.38,964.12H466.12V914.34h50.26Z" style="fill:#2d3277"/><path d="M466.12,1171.19h50.37V981.09H466.12Z" style="fill:#2d3277"/><path d="M651.13,1170.79H600.5L534.1,981.05h52.84l37.79,133.41,33.5-116.3c3.84-11.43,11.45-17.11,22.83-17.11h37.13Z" style="fill:#2d3277"/></svg>