<svg xmlns="http://www.w3.org/2000/svg" viewBox="0 0 384.92 305"><title>Ativo 1</title><polygon points="192.46 0 96.23 48.11 96.23 173.21 134.72 173.21 134.72 76.98 250.19 76.98 250.19 173.21 288.69 173.21 288.69 48.11 192.46 0" style="fill:#3462ac"/><rect x="144.34" y="153.97" width="19.25" height="19.25" style="fill:#3462ac"/><rect x="144.34" y="125.1" width="19.25" height="19.25" style="fill:#3462ac"/><rect x="144.34" y="96.23" width="19.25" height="19.25" style="fill:#3462ac"/><rect x="173.21" y="96.23" width="19.25" height="19.25" style="fill:#3462ac"/><rect x="173.21" y="153.97" width="19.25" height="19.25" style="fill:#3462ac"/><rect x="173.21" y="125.1" width="19.25" height="19.25" style="fill:#3462ac"/><rect x="202.08" y="153.97" width="19.25" height="19.25" style="fill:#3462ac"/><rect x="202.08" y="125.1" width="19.25" height="19.25" style="fill:#3462ac"/><path d="M75.63,267.25c0,15.91-7.55,25.08-12.4,29.12-4,3.37-12.27,8.23-25.48,8.23-3.64,0-17.93-.68-27.64-10.12C5.93,290.44,0,281.81,0,267.12c0-4.05.27-15.51,8.22-25.08,4.86-5.8,14.56-13.08,32.36-12,8.23.4,15.51,2.29,22.11,7.55C71.46,244.73,75.63,255.92,75.63,267.25Zm-21,.67c0-10.65-3.37-16-7.41-18.87-1.89-1.35-4.72-2.7-10.25-2.7a17.66,17.66,0,0,0-7.82,2c-3.77,2.16-8.22,8.23-8.22,18.61a27.86,27.86,0,0,0,3.64,14.16A15.63,15.63,0,0,0,38,288C49.48,288,54.6,278.44,54.6,267.92Zm97.34,34.52H131.18v-6.61a31.16,31.16,0,0,1-3.1,3.1,28.86,28.86,0,0,1-17.39,5.53c-1.62,0-9.44,0-15-4.31-7.82-6.21-7.14-17.53-7.14-26.16V232.06h20.9v43.82c0,4.45.13,7.82,3.9,10.11a11.4,11.4,0,0,0,6.07,1.62c6.61,0,10.11-3.78,11.06-6.34a14.62,14.62,0,0,0,.81-5.39V232.06h20.62Zm55.42-55.95H193.6V278c0,2.83-.13,4.44.54,5.66C195.36,286,198.59,286,199,286c2.42,0,4.85-.13,7.28-.13v16A63.52,63.52,0,0,1,195.36,303a43.11,43.11,0,0,1-4.32-.14c-1.89-.13-8.09,0-12.81-4.31-5.39-4.72-5.12-11.87-5.12-18.34V246.35H162.86V233.68h10.25v-22H193.6v22.11h13.76Zm47.72,0H241.33V278c0,2.83-.13,4.44.54,5.66,1.21,2.29,4.45,2.29,4.85,2.29,2.43,0,4.86-.13,7.28-.13v16A63.4,63.4,0,0,1,243.08,303a43,43,0,0,1-4.31-.14c-1.89-.13-8.09,0-12.81-4.31-5.39-4.72-5.12-11.87-5.12-18.34V246.35H210.59V233.68h10.25v-22h20.49v22.11h13.75v12.68Zm77.52,25.07H282.32a16.85,16.85,0,0,0,.27,4.18c1.61,8.23,7.41,13.35,15.77,13.35a19.51,19.51,0,0,0,6.74-1.21c7-2.43,10.11-9.57,11.06-11.33l15.64,8.09a80.85,80.85,0,0,1-5.94,8C315.48,304.06,302,305,296.74,305a42.34,42.34,0,0,1-12.67-1.89c-15.64-4.85-22.92-18.6-22.92-34.51,0-4.32.27-17.39,9-27.51,4.32-4.85,11.73-11.19,27.1-11.19,4.72,0,18.74.54,27.51,12.81C332.74,253.63,332.47,268.19,332.6,271.56Zm-21.43-12.94c-.27-2.29-.68-9.44-7.69-12.54a13.75,13.75,0,0,0-6.33-1.35,14.2,14.2,0,0,0-13.08,8.5,23.82,23.82,0,0,0-1.62,5.39Zm73.75-9L378,250.67a37.88,37.88,0,0,0-6.47,1.48c-5.53,1.89-6.47,5.39-6.47,10.65v39.64H344.47V232.06h20.09v7.28a26.06,26.06,0,0,1,8.22-5.26,39.4,39.4,0,0,1,12.14-2.83Z" style="fill:#29324a"/></svg>