<svg xmlns="http://www.w3.org/2000/svg" viewBox="0 0 384.91 93.29"><title>logo</title><path d="M151.94,90.73H131.18v-6.6a31.16,31.16,0,0,1-3.1,3.1,28.92,28.92,0,0,1-17.39,5.53c-1.62,0-9.44,0-15-4.32-7.82-6.2-7.14-17.52-7.14-26.15V20.36h20.89V64.18c0,4.44.14,7.81,3.91,10.11a11.42,11.42,0,0,0,6.07,1.61c6.61,0,10.11-3.77,11.06-6.33a14.65,14.65,0,0,0,.81-5.39V20.36h20.62Z" style="fill:#29324a"/><path d="M193.6,66.33c0,2.83-.13,4.45.54,5.66,1.22,2.29,4.45,2.29,4.86,2.29,2.42,0,4.85-.13,7.28-.13v16a63.65,63.65,0,0,1-10.92,1.08,43.11,43.11,0,0,1-4.32-.14c-1.89-.13-8.09,0-12.81-4.31-5.39-4.72-5.12-11.86-5.12-18.34V34.64H162.86V22h10.25V0L193.6,9.68V22.11h13.75V34.78H193.6Z" style="fill:#29324a"/><path d="M255.08,34.78H241.33V66.33c0,2.83-.14,4.45.54,5.66,1.21,2.3,4.45,2.3,4.85,2.3,2.43,0,4.86-.14,7.28-.14v16a63.83,63.83,0,0,1-10.92,1.07c-1.48,0-3,0-4.31-.13-1.89-.14-8.09,0-12.81-4.31-5.39-4.72-5.12-11.87-5.12-18.34V34.65H210.59V22h10.25V0h20.49V22.11h13.75V34.78Z" style="fill:#29324a"/><path d="M365.1,90.73V51.09c0-5.26.94-8.76,6.47-10.65A37.67,37.67,0,0,1,378,39l6.87-1.08V19.54a39.21,39.21,0,0,0-12.13,2.84,25.9,25.9,0,0,0-8.22,5.25V20.35H344.47V81Z" style="fill:#29324a"/><path d="M62.69,25.88c-6.6-5.25-13.88-7.14-22.11-7.55-17.79-1.07-27.5,6.21-32.35,12C.27,39.91,0,51.37,0,55.41c0,14.7,5.93,23.32,10.11,27.37,9.71,9.44,24,10.11,27.64,10.11C51,92.89,59.19,88,63.23,84.67c4.86-4,12.41-13.22,12.41-29.13C75.64,44.22,71.46,33,62.69,25.88ZM38,76.31a15.61,15.61,0,0,1-13.48-6.88A27.84,27.84,0,0,1,20.9,55.28c0-10.39,4.45-16.45,8.22-18.61a17.66,17.66,0,0,1,7.82-2c5.53,0,8.36,1.35,10.25,2.69,4,2.84,7.41,8.23,7.41,18.88S49.48,76.31,38,76.31Z" style="fill:#29324a"/><path d="M305.1,76.17a19.58,19.58,0,0,1-6.74,1.22c-8.36,0-14.15-5.13-15.77-13.35a16.89,16.89,0,0,1-.27-4.18h50.29c-.14-3.37.13-17.93-7.82-28.85C316,18.74,302,18.2,297.28,18.2c-15.37,0-22.78,6.34-27.1,11.19a35.45,35.45,0,0,0-7.06,13.14,49.62,49.62,0,0,0-2,14.36c0,15.91,7.28,29.66,22.92,34.52a42.57,42.57,0,0,0,12.67,1.88c5.26,0,18.74-.94,29.12-12.4a72.46,72.46,0,0,0,4.88-6.4L315,67.05C313.39,69.91,310.34,74.36,305.1,76.17Zm-21-34.65A14.21,14.21,0,0,1,297.15,33a13.75,13.75,0,0,1,6.33,1.35c7,3.1,7.42,10.24,7.69,12.54H282.45A24.11,24.11,0,0,1,284.07,41.52Z" style="fill:#29324a"/><path d="M45.6,56.22c0,3.55-.82,6.71-2.26,8.67C42.52,66,41.17,67.31,38,67.31a6.73,6.73,0,0,1-5.91-2.75,19.21,19.21,0,0,1-2.21-9.28c0-7.09,2.74-10.25,3.69-10.8l0,0,0,0A9.21,9.21,0,0,1,37,43.65c3.56,0,4.61.75,5,1.05C45,46.79,45.6,52.12,45.6,56.22Z" style="fill:#1d71b8"/></svg>