<svg xmlns="http://www.w3.org/2000/svg" viewBox="0 0 75.64 74.67"><title>logo-simbol</title><path d="M62.69,7.66C56.09,2.41,48.81.52,40.58.11,22.79-1,13.08,6.32,8.23,12.11.27,21.69,0,33.15,0,37.19c0,14.7,5.93,23.32,10.11,27.37,9.71,9.44,24,10.11,27.64,10.11,13.21,0,21.44-4.85,25.48-8.22,4.86-4.05,12.41-13.22,12.41-29.13C75.64,26,71.46,14.81,62.69,7.66ZM38,58.09a15.61,15.61,0,0,1-13.48-6.88A27.84,27.84,0,0,1,20.9,37.06c0-10.39,4.45-16.45,8.22-18.61a17.66,17.66,0,0,1,7.82-2c5.53,0,8.36,1.35,10.25,2.69C51.23,22,54.6,27.35,54.6,38S49.48,58.09,38,58.09Z" style="fill:#29324a"/><path d="M45.6,38c0,3.55-.82,6.71-2.26,8.67-.82,1.13-2.17,2.42-5.32,2.42a6.73,6.73,0,0,1-5.91-2.75,19.21,19.21,0,0,1-2.21-9.28c0-7.09,2.74-10.25,3.69-10.8l0,0,0,0A9.21,9.21,0,0,1,37,25.43c3.56,0,4.61.75,5,1.05C45,28.57,45.6,33.9,45.6,38Z" style="fill:#1d71b8"/></svg>