<svg xmlns="http://www.w3.org/2000/svg" viewBox="0 0 384.92 93.3"><title>tipografia</title><path d="M75.63,55.55c0,15.91-7.55,25.07-12.4,29.12C59.19,88,51,92.89,37.75,92.89c-3.64,0-17.93-.67-27.64-10.11C5.93,78.74,0,70.11,0,55.41c0-4,.27-15.5,8.22-25.08,4.86-5.79,14.56-13.07,32.36-12,8.23.4,15.51,2.29,22.11,7.55C71.46,33,75.63,44.22,75.63,55.55Zm-21,.67c0-10.65-3.37-16-7.41-18.87-1.89-1.35-4.72-2.7-10.25-2.7a17.66,17.66,0,0,0-7.82,2c-3.77,2.16-8.22,8.23-8.22,18.61a27.81,27.81,0,0,0,3.64,14.15A15.61,15.61,0,0,0,38,76.31C49.48,76.31,54.6,66.74,54.6,56.22Zm97.34,34.51H131.18v-6.6a31.16,31.16,0,0,1-3.1,3.1,28.92,28.92,0,0,1-17.39,5.53c-1.62,0-9.44,0-15-4.32-7.82-6.2-7.14-17.52-7.14-26.15V20.36h20.9V64.18c0,4.44.13,7.81,3.9,10.11a11.42,11.42,0,0,0,6.07,1.61c6.61,0,10.11-3.77,11.06-6.33a14.65,14.65,0,0,0,.81-5.39V20.36h20.62Zm55.42-55.95H193.6V66.33c0,2.83-.13,4.45.54,5.66,1.22,2.3,4.45,2.3,4.86,2.3,2.42,0,4.85-.14,7.28-.14v16a63.83,63.83,0,0,1-10.92,1.07c-1.49,0-3,0-4.32-.13-1.89-.14-8.09,0-12.81-4.31-5.39-4.72-5.12-11.87-5.12-18.34V34.65H162.86V22h10.25V0H193.6V22.11h13.76Zm47.72,0H241.33V66.33c0,2.83-.13,4.45.54,5.66,1.21,2.3,4.45,2.3,4.85,2.3,2.43,0,4.86-.14,7.28-.14v16a63.7,63.7,0,0,1-10.92,1.07c-1.48,0-3,0-4.31-.13-1.89-.14-8.09,0-12.81-4.31-5.39-4.72-5.12-11.87-5.12-18.34V34.65H210.59V22h10.25V0h20.49V22.11h13.75V34.78ZM332.6,59.86H282.32a16.89,16.89,0,0,0,.27,4.18c1.61,8.22,7.41,13.35,15.77,13.35a19.58,19.58,0,0,0,6.74-1.22c7-2.42,10.11-9.57,11.06-11.32l15.64,8.09a79.18,79.18,0,0,1-5.94,8C315.48,92.35,302,93.3,296.74,93.3a42.67,42.67,0,0,1-12.67-1.89c-15.64-4.85-22.92-18.61-22.92-34.52,0-4.31.27-17.39,9-27.5,4.32-4.85,11.73-11.19,27.1-11.19,4.72,0,18.74.54,27.51,12.81C332.74,41.93,332.47,56.49,332.6,59.86ZM311.17,46.92c-.27-2.29-.68-9.44-7.69-12.54A13.75,13.75,0,0,0,297.15,33a14.2,14.2,0,0,0-13.08,8.5,23.82,23.82,0,0,0-1.62,5.39Zm73.75-9L378,39a38.21,38.21,0,0,0-6.47,1.49c-5.53,1.88-6.47,5.39-6.47,10.65V90.73H344.47V20.36h20.09v7.28a26.06,26.06,0,0,1,8.22-5.26,39.4,39.4,0,0,1,12.14-2.83Z" style="fill:#29324a"/></svg>