<svg xmlns="http://www.w3.org/2000/svg" viewBox="0 0 32 31.59">
  <defs>
    <style>
      .a {
        fill: #29324a;
      }

      .b {
        fill: #1d71b8;
      }
      @media (prefers-color-scheme: dark) {
        .a {
          fill: #ffffff;
        }
      }
    </style>
  </defs>
  <title>favicon</title>
  <g>
    <path class="a" d="M26.52,3.24A15.45,15.45,0,0,0,17.17.05C9.64-.42,5.53,2.67,3.48,5.12A16.53,16.53,0,0,0,0,15.73C0,22,2.51,25.6,4.28,27.31c4.1,4,10.15,4.28,11.69,4.28a16.5,16.5,0,0,0,10.78-3.48C28.81,26.4,32,22.52,32,15.79A16,16,0,0,0,26.52,3.24ZM16.08,24.58a6.66,6.66,0,0,1-5.71-2.91,11.85,11.85,0,0,1-1.53-6c0-4.4,1.88-7,3.48-7.87A7.33,7.33,0,0,1,15.63,7,6.92,6.92,0,0,1,20,8.1c1.71,1.21,3.14,3.47,3.14,8S20.93,24.58,16.08,24.58Z"/>
    <path class="b" d="M19.29,16.08a6.48,6.48,0,0,1-.95,3.67,2.51,2.51,0,0,1-2.26,1,2.86,2.86,0,0,1-2.5-1.16,8.25,8.25,0,0,1-.93-3.93c0-3,1.16-4.34,1.56-4.57h0a3.76,3.76,0,0,1,1.44-.35,3.32,3.32,0,0,1,2.12.44C19,12.09,19.29,14.34,19.29,16.08Z"/>
  </g>
</svg>
